<svg id="Layer_1" data-name="Layer 1" xmlns="http://www.w3.org/2000/svg" xmlns:xlink="http://www.w3.org/1999/xlink" viewBox="0 0 759.8 381.23"><defs><style>.cls-1{fill:url(#linear-gradient);}.cls-2{fill:url(#linear-gradient-2);}.cls-3{fill:url(#linear-gradient-3);}.cls-4{fill:url(#linear-gradient-4);}.cls-5{fill:url(#linear-gradient-5);}.cls-6{fill:url(#linear-gradient-6);}.cls-7{fill:url(#linear-gradient-7);}.cls-8{fill:url(#linear-gradient-8);}.cls-9{fill:url(#linear-gradient-9);}.cls-10{fill:url(#linear-gradient-10);}.cls-11{fill:url(#linear-gradient-11);}.cls-12{fill:url(#linear-gradient-12);}.cls-13{fill:url(#linear-gradient-13);}.cls-14{fill:url(#linear-gradient-14);}.cls-15{fill:url(#linear-gradient-15);}.cls-16{fill:url(#linear-gradient-16);}.cls-17{fill:url(#linear-gradient-17);}.cls-18{fill:url(#linear-gradient-18);}.cls-19{fill:url(#linear-gradient-19);}.cls-20{fill:url(#linear-gradient-20);}.cls-21{fill:url(#linear-gradient-21);}</style><linearGradient id="linear-gradient" x1="77.07" y1="215.12" x2="313.13" y2="215.12" gradientUnits="userSpaceOnUse"><stop offset="0" stop-color="#002b48"/><stop offset="0.53" stop-color="#005ead"/><stop offset="1" stop-color="#008ed4"/></linearGradient><linearGradient id="linear-gradient-2" x1="296.38" y1="227.51" x2="425.25" y2="227.51" xlink:href="#linear-gradient"/><linearGradient id="linear-gradient-3" x1="502.13" y1="251.1" x2="626.92" y2="251.1" xlink:href="#linear-gradient"/><linearGradient id="linear-gradient-4" x1="661.68" y1="262.22" x2="801.06" y2="262.22" xlink:href="#linear-gradient"/><linearGradient id="linear-gradient-5" x1="316.42" y1="304.15" x2="407.57" y2="304.15" xlink:href="#linear-gradient"/><linearGradient id="linear-gradient-6" x1="318.07" y1="157.64" x2="409.22" y2="157.64" xlink:href="#linear-gradient"/><linearGradient id="linear-gradient-7" x1="600.39" y1="157.64" x2="684.06" y2="157.64" xlink:href="#linear-gradient"/><linearGradient id="linear-gradient-8" x1="291.36" y1="148.5" x2="350.09" y2="148.5" xlink:href="#linear-gradient"/><linearGradient id="linear-gradient-9" x1="336.45" y1="233.75" x2="358.65" y2="233.75" gradientTransform="translate(431.07 -176.69) rotate(67.58)" xlink:href="#linear-gradient"/><linearGradient id="linear-gradient-10" x1="480.15" y1="154.89" x2="536.86" y2="154.89" xlink:href="#linear-gradient"/><linearGradient id="linear-gradient-11" x1="503.32" y1="310.5" x2="583.98" y2="310.5" xlink:href="#linear-gradient"/><linearGradient id="linear-gradient-12" x1="549.55" y1="237.88" x2="574.74" y2="237.88" gradientTransform="translate(306.54 -316.43) rotate(42.31)" xlink:href="#linear-gradient"/><linearGradient id="linear-gradient-13" x1="41.27" y1="427.58" x2="135.84" y2="427.58" xlink:href="#linear-gradient"/><linearGradient id="linear-gradient-14" x1="121.35" y1="458.89" x2="170.33" y2="458.89" xlink:href="#linear-gradient"/><linearGradient id="linear-gradient-15" x1="165.5" y1="438.47" x2="212.28" y2="438.47" xlink:href="#linear-gradient"/><linearGradient id="linear-gradient-16" x1="188.81" y1="455.21" x2="256.09" y2="455.21" xlink:href="#linear-gradient"/><linearGradient id="linear-gradient-17" x1="254.74" y1="452.96" x2="296.34" y2="452.96" xlink:href="#linear-gradient"/><linearGradient id="linear-gradient-18" x1="305.16" y1="436.44" x2="355.58" y2="436.44" xlink:href="#linear-gradient"/><linearGradient id="linear-gradient-19" x1="337.28" y1="438.47" x2="384.05" y2="438.47" xlink:href="#linear-gradient"/><linearGradient id="linear-gradient-20" x1="402.21" y1="430.61" x2="509.5" y2="430.61" xlink:href="#linear-gradient"/><linearGradient id="linear-gradient-21" x1="533.54" y1="459.53" x2="582.52" y2="459.53" xlink:href="#linear-gradient"/></defs><path class="cls-1" d="M77.07,119.58V107.33H120v16.85h-3.07Zm46,176.14,39.82,4.6v12.25H77.07V300.32l39.82-4.6Zm-16.85-93.43c0-31.55,0-63.41-.92-95h29.41c-.92,31.86-.92,61.88-.92,98v9.2c0,34.61,0,66.47.92,98H105.25c.92-30.94.92-62.8.92-95ZM120,203.82h38.29c33.08,0,49-17.76,49-42.58,0-25.73-13.78-39.82-45.64-39.82H120V107.33h42c46.87,0,74.44,19.91,74.44,53.91,0,26-20.53,49.63-60.66,53l.92-2.45c22.06,2.14,35.53,12.25,43.81,39.82l3.49,25.05,3,26.11c8.2,5.74,42.48-15.09,48.43-20.57,19.09-17.6,26.25-30.06,26.25-30.06l8.74,12.1c1.59,2.2,4.09,6.51,1.85,8.05-15.84,10.9-70.56,50.63-78.66,50.63-19,0-25.4-12.19-29.07-26.28L192,246.71c-6.13-24.81-17.47-29.1-42.89-29.1H120Z" transform="translate(-41.27 -107.33)"/><path class="cls-2" d="M416.2,238.73c-2.74-1.07-28.09-26.55-42.1-38.25-6.9-5.76-16.8-6.85-24.44-2.11-18,11.2-31.6,40.09-36.21,70.1-.08.53-1.13,1.72-2.41,2.94a13.63,13.63,0,0,1-8.64,3.66l-2.13.11c-5.36.86-3.78-2.64-3.3-8.05,4.18-46.75,36-87.43,68.78-87.43,21.65,0,59.52,49.71,59.5,53.47C425.23,238.76,419.91,240.17,416.2,238.73Z" transform="translate(-41.27 -107.33)"/><path class="cls-3" d="M587.68,295.16v-59.4c0-25.53-13.9-36.52-31.1-36.52a60.07,60.07,0,0,0-9.3.7c-8.25,1.29-24.43,6.95-25.86,15.18h0c-2.34,7.56-2.32,14-9.36,14s-9.41-3.8-9.93-10.31c4.95-19.8,24.76-33.61,50.81-33.61,26.83,0,49,14.55,49,47.37v55.23c0,11.72,3.64,15.89,9.63,15.89,4.43,0,7.3-2.34,10.16-5.73l5.21,5.73c-6.25,9.9-13.28,13.29-22.14,13.29C590.45,317,587.68,311.31,587.68,295.16Z" transform="translate(-41.27 -107.33)"/><path class="cls-4" d="M711.92,254.56A335.66,335.66,0,0,1,759.4,241.7v11a276.55,276.55,0,0,0-41,12.25c-27.57,10.72-30.63,22.36-30.63,31.24,0,16.24,10.72,22.67,24.81,22.67,10.72,0,16.85-4,36.15-17.76l6.13-4.6,4.28,6.44-8.88,8.88c-18.38,18.38-28.79,27-47.48,27-22.36,0-41.05-12.87-41.05-38.3C661.68,283.36,670.87,269.57,711.92,254.56Zm35.23,52.08V236.8c0-30-8.58-37.38-28.8-37.38a71.25,71.25,0,0,0-27.57,5.52l12.26-9.5-8,26.35c-2.75,8.88-7.35,13.78-15.62,13.78s-13.17-4.59-13.79-12.25c5.82-23.28,28.49-37.68,59.13-37.68,31.55,0,46.87,14.4,46.87,53v64.95c0,13.78,4.28,18.68,11.33,18.68,5.21,0,8.58-2.75,12-6.74l6.12,6.74c-7.35,11.64-15.62,15.63-26,15.63C758.18,337.89,747.15,325.63,747.15,306.64Z" transform="translate(-41.27 -107.33)"/><path class="cls-5" d="M328.84,289.27c5.9,19.93,15.06,29.32,31.33,29.32,15.1,0,32.41-25.87,38.69-36.13,2.46-4,9-2.27,8.69,2.45V285c-3.36,21.6-22.72,43.06-47.38,43.06-21.54,0-36.35-9.64-43.75-34.66" transform="translate(-41.27 -107.33)"/><path class="cls-6" d="M318.07,168.37c7.4-25,22.21-34.67,43.75-34.67,24.66,0,44,21.46,47.38,43.07a.41.41,0,0,0,0,.11c.31,4.72-6.24,6.49-8.7,2.45-6.28-10.26-23.58-36.13-38.69-36.13-16.27,0-25.43,9.39-31.33,29.32" transform="translate(-41.27 -107.33)"/><path class="cls-7" d="M682.28,123.06c-20.49-3.54-61.75,10.2-69,24.78-6.69,13.54,8.83,40.52,15.25,50.7,2.52,4-2,9.08-6.06,6.71l-.09-.06c-17.88-12.59-28.54-39.45-17.61-61.56,9.55-19.31,53.54-38,79.25-33.54" transform="translate(-41.27 -107.33)"/><ellipse class="cls-8" cx="320.73" cy="148.5" rx="29.37" ry="42.34"/><ellipse class="cls-9" cx="347.55" cy="233.75" rx="14.88" ry="10.32" transform="translate(-42.35 358.54) rotate(-67.58)"/><ellipse class="cls-10" cx="508.51" cy="154.89" rx="28.35" ry="40.88"/><path class="cls-11" d="M503.32,292.86c.13-11.62,10-10.47,10.2-2.06.42,25.16,27.12,31.3,34.21,33.92,12.95,4.79,30.21-14.78,29.3-26.55a4,4,0,0,1,4.85-4.26h0c2.4.52,3.75,10.69-1.63,18.88-10.45,15.89-23.16,27.61-37.76,22.8C528.64,331,503.32,321,503.32,292.86Z" transform="translate(-41.27 -107.33)"/><ellipse class="cls-12" cx="562.15" cy="237.88" rx="10.32" ry="14.88" transform="translate(-54.97 333.02) rotate(-42.31)"/><path class="cls-13" d="M108.21,431.48a186.49,186.49,0,0,0-32.2,9q-7.8,11.44-17.12,27.46L54.4,475.8c-.79,1.41-2,3.45-3.64,6.1q-2.71,4.67-5.68,4.66a4.08,4.08,0,0,1-3.81-3.73q0-2.37,6.35-13.47,3.48-6,10.51-17c1.81-2.83,3.25-5.14,4.32-6.95a72.28,72.28,0,0,0-9.32,3.3,8.55,8.55,0,0,1-3.39.93,2.93,2.93,0,0,1-2.63-1.52,3.66,3.66,0,0,1-.67-2.2,4.31,4.31,0,0,1,2-4.07q3.3-2,11.86-4.66a97.29,97.29,0,0,0,10.09-3.73q1.77-2.21,9.32-13,3.23-4.65,18.31-22a306.66,306.66,0,0,1,22.37-23.64q6.69-6.45,10.25-6.44a5,5,0,0,1,3.81,1.78,5.37,5.37,0,0,1,1.36,3.56q0,2.37-2.37,8.3-4.07,10.42-7.8,22.29-3.23,10.5-4.32,16.1a14.35,14.35,0,0,0,2-.09c1.64-.05,3-.08,4.07-.08q4.92,0,4.92,3.73a5.7,5.7,0,0,1-1.06,3.18,4.25,4.25,0,0,1-2.42,1.9,12.3,12.3,0,0,1-2.79.17,32.51,32.51,0,0,0-7.21.59q-2,6-6.44,30.77-2.28,16.44-2.2,20.17c0,4.06-1.22,6.1-3.65,6.1a5,5,0,0,1-4.49-3,10.92,10.92,0,0,1-1.18-5.51q0-11.68,4.15-31.52Q107.2,436.81,108.21,431.48Zm2.38-9.15q.76-2.46,3.9-13.14.75-2.79,3.89-11.1,3.14-8.55,5-13.73A64.77,64.77,0,0,0,112.2,394q-20,21.53-28.22,35.17,3.13-.76,13.47-3.81Q100.42,424.53,110.59,422.33Z" transform="translate(-41.27 -107.33)"/><path class="cls-14" d="M141.18,449.19c.73-.68,1.44-1.36,2.12-2Q161,429.87,167,429.87c2.2,0,3.3,1.22,3.3,3.64,0,1.7-1,3.7-3,6q-16.2,18.9-16.19,33.3a17.07,17.07,0,0,0,2.54,8.9,6.63,6.63,0,0,1,1.19,3,2.66,2.66,0,0,1-1,2,3.47,3.47,0,0,1-2.63,1.19q-3.47,0-5.84-4.41a20.57,20.57,0,0,1-2.29-10.08q0-11.44,8.64-25.34-11.52,7.37-21.44,26.1-2.54,4.49-5.42,4.49a3.07,3.07,0,0,1-2.37-1,4.12,4.12,0,0,1-1.19-3.05q0-4.58,10.42-24,5.59-10.5,8.82-15.25c2.14-3.11,4-4.66,5.5-4.66a3,3,0,0,1,2.12,1,3.77,3.77,0,0,1,1.19,2.72q0,1.86-2.46,5.33A92.14,92.14,0,0,0,141.18,449.19Z" transform="translate(-41.27 -107.33)"/><path class="cls-15" d="M192.36,427.5a3,3,0,0,1,2.38,1.1,3.15,3.15,0,0,1,.67,1.86c0,1-.81,2.71-2.45,5.09q-8.82,13.63-12.54,22.45a189.33,189.33,0,0,0-7,18.65q-1.35,4.23-4.23,4.23a3.23,3.23,0,0,1-2.72-1.35,3.61,3.61,0,0,1-.93-2.37q0-2.55,5.42-17,4.25-11.35,13.73-25.09a46.71,46.71,0,0,1,4.58-6A4.35,4.35,0,0,1,192.36,427.5Zm16.11-31.44q3.81,0,3.81,3.9c0,2.37-1.24,5-3.73,7.88s-4.66,4.15-6.86,4.15a3.31,3.31,0,0,1-2.63-1.19,3.84,3.84,0,0,1-1-2.71q0-4.06,4.49-8.64C204.74,397.19,206.71,396.06,208.47,396.06Z" transform="translate(-41.27 -107.33)"/><path class="cls-16" d="M207.62,450a121.4,121.4,0,0,1,12.54-11.7q8.22-6.34,11-6.35a3.25,3.25,0,0,1,2.37,1,2.83,2.83,0,0,1,.93,2q0,1.6-3,5.25a47.48,47.48,0,0,0-6.36,9.83q19.83-19.9,27.12-19.91a3.91,3.91,0,0,1,2.62.93,3.2,3.2,0,0,1,1.19,2.54q0,2.38-3.64,6.1-16,16.53-16,27.12c0,2.88.51,5,1.53,6.19l2.2,2.8a2.8,2.8,0,0,1,.68,1.94,3.71,3.71,0,0,1-1.1,2.55,3.88,3.88,0,0,1-2.89,1.35c-1.86,0-3.58-1.18-5.16-3.56a17.26,17.26,0,0,1-2.89-10,31.76,31.76,0,0,1,4.41-15.59,64.48,64.48,0,0,1,5.08-7.46A81.91,81.91,0,0,0,223.63,460a87.38,87.38,0,0,0-9.15,14.4q-1.95,3.82-4.57,3.82c-1.93,0-2.89-1.08-2.89-3.22q0-3.48,4.75-14.32a129.1,129.1,0,0,1,6.7-13.05Q204,458.85,196.69,478q-1.78,4.25-4.75,4.24a2.72,2.72,0,0,1-2.2-1,3.48,3.48,0,0,1-.93-2.45q0-5,5.59-18a148.44,148.44,0,0,1,13.22-24.83q5.08-7.71,7.88-7.72c1.69,0,2.54.91,2.54,2.72,0,.79-1,2.77-3.13,5.93A102.25,102.25,0,0,0,207.62,450Z" transform="translate(-41.27 -107.33)"/><path class="cls-17" d="M279.57,464.28a65.93,65.93,0,0,1-5.51,8.3q-5.34,6.62-10.6,6.61a7.87,7.87,0,0,1-7.11-4.32,13,13,0,0,1-1.61-6.61q0-9.4,5.93-20.76,6.6-12.63,15.93-19.41,6.11-4.41,11.78-4.41a8.38,8.38,0,0,1,5.93,2.21,6,6,0,0,1,2,4.4,14.08,14.08,0,0,1-1.44,5.17,5.69,5.69,0,0,1,1.28,3.14c0,1.18-.8,3.13-2.38,5.85a65.16,65.16,0,0,0-4.91,11q-2.64,7.29-2.63,11.7a8.26,8.26,0,0,0,2.12,5.84,15.42,15.42,0,0,0,3.47,1.95,3.62,3.62,0,0,1,2.12,3.56,3.3,3.3,0,0,1-1.18,2.63,4.42,4.42,0,0,1-3,1.1,9.88,9.88,0,0,1-7.88-4.07,12.63,12.63,0,0,1-2.71-8.3C279.23,468.74,279.34,466.87,279.57,464.28Zm10.59-27.89a8.31,8.31,0,0,0-2.21-2.75,4.16,4.16,0,0,0-2.54-.89q-6.44,0-14,11.27-8.31,12.47-8.3,21.1a5.37,5.37,0,0,0,.8,3.22,2.79,2.79,0,0,0,2.42,1.1q4.06,0,9.49-8.64a144.4,144.4,0,0,0,7.54-14,73.71,73.71,0,0,1,4.32-8A12.43,12.43,0,0,1,290.16,436.39Z" transform="translate(-41.27 -107.33)"/><path class="cls-18" d="M330.58,423.68a138.59,138.59,0,0,0-10.17,19.16q-6.69,15.07-6.69,22.54a5,5,0,0,0,.89,3.22,3.23,3.23,0,0,0,2.67,1.1q4.23,0,10.25-8a101.91,101.91,0,0,0,6.78-9.83q1.6-2.79,3.47-2.79a2.53,2.53,0,0,1,1.87.76,2.33,2.33,0,0,1,.68,1.52q0,3.15-8.22,14-9.84,13-18,13.05a8.6,8.6,0,0,1-7.2-4q-1.79-2.54-1.78-7.2,0-10.25,5.93-23.9,1.44-3.37,8-16.35a15.52,15.52,0,0,1-3.48.59,5.77,5.77,0,0,1-3.14-.85,3.46,3.46,0,0,1-1.86-3q0-2.11,2.46-3.39a39.56,39.56,0,0,1,6.27-1.1,46.46,46.46,0,0,0,5.93-1.61,151.09,151.09,0,0,1,9.66-14.49c2.49-3.39,4.21-5.6,5.17-6.61,1.36-1.42,2.54-2.12,3.56-2.12a3.08,3.08,0,0,1,2.2,1.18,3.29,3.29,0,0,1,1,2.21q0,2.21-4.75,8.73a79.36,79.36,0,0,0-4.66,6.86q9.42-2.55,13.48-2.54,4.66,0,4.66,3.9a3.1,3.1,0,0,1-1.61,2.88,13.55,13.55,0,0,1-4.41.84q-1.44-.08-12.79,3.22C334.68,422.36,332.61,423,330.58,423.68Z" transform="translate(-41.27 -107.33)"/><path class="cls-19" d="M364.14,427.5a3,3,0,0,1,2.37,1.1,3.16,3.16,0,0,1,.68,1.86c0,1-.82,2.71-2.46,5.09q-8.81,13.63-12.54,22.45a186.78,186.78,0,0,0-7,18.65q-1.37,4.23-4.24,4.23a3.23,3.23,0,0,1-2.71-1.35,3.61,3.61,0,0,1-.93-2.37q0-2.55,5.42-17,4.23-11.35,13.73-25.09a46.9,46.9,0,0,1,4.57-6A4.37,4.37,0,0,1,364.14,427.5Zm16.1-31.44q3.81,0,3.81,3.9c0,2.37-1.24,5-3.72,7.88s-4.67,4.15-6.87,4.15a3.32,3.32,0,0,1-2.63-1.19,3.87,3.87,0,0,1-1-2.71q0-4.06,4.49-8.64Q377.61,396.06,380.24,396.06Z" transform="translate(-41.27 -107.33)"/><path class="cls-20" d="M509.5,429.7c0,40.6-28.12,58.3-54.67,58.3-29.71,0-52.62-21.78-52.62-56.49,0-36.74,24-58.29,54.44-58.29C488.18,373.22,509.5,396.13,509.5,429.7Zm-87.1,1.13c0,24.05,13.83,42.2,33.34,42.2,19.06,0,33.35-17.92,33.35-42.65,0-18.6-9.3-42.19-32.89-42.19S422.4,410,422.4,430.83Z" transform="translate(-41.27 -107.33)"/><path class="cls-21" d="M553.37,449.83c.74-.68,1.44-1.36,2.12-2q17.71-17.28,23.73-17.28,3.3,0,3.3,3.64,0,2.53-3,6-16.18,18.88-16.19,33.3a17.09,17.09,0,0,0,2.54,8.9,6.63,6.63,0,0,1,1.19,3.05,2.66,2.66,0,0,1-1,1.95,3.45,3.45,0,0,1-2.62,1.18q-3.48,0-5.85-4.4a20.59,20.59,0,0,1-2.29-10.09q0-11.43,8.64-25.34-11.52,7.38-21.44,26.11-2.53,4.49-5.42,4.49a3.07,3.07,0,0,1-2.37-1,4.14,4.14,0,0,1-1.19-3.05q0-4.58,10.43-24,5.6-10.51,8.81-15.26c2.15-3.1,4-4.66,5.51-4.66a3,3,0,0,1,2.11,1,3.69,3.69,0,0,1,1.19,2.71q0,1.86-2.46,5.34A91.06,91.06,0,0,0,553.37,449.83Z" transform="translate(-41.27 -107.33)"/></svg>